<svg xmlns="http://www.w3.org/2000/svg" viewBox="0 0 96 96">
  <rect width="96" height="96" rx="24" fill="#071216"/>
  <circle cx="48" cy="48" r="40" fill="#0891b2"/>
  <path d="M25 58.5V35.8C25 29.3 30.3 24 36.8 24h22.4C65.7 24 71 29.3 71 35.8v11.9c0 6.5-5.3 11.8-11.8 11.8H44.7L31.4 70.3c-2.5 2-6.4.2-6.4-3.1v-8.7Z" fill="#fff"/>
  <path d="M38 43h20" stroke="#071216" stroke-width="5" stroke-linecap="round"/>
  <circle cx="34" cy="43" r="5.2" fill="#071216"/>
  <circle cx="62" cy="43" r="5.2" fill="#071216"/>
  <path d="M66.8 20.5l2.2 6 6 2.2-6 2.2-2.2 6-2.2-6-6-2.2 6-2.2 2.2-6Z" fill="#facc15"/>
</svg>
