<svg xmlns="http://www.w3.org/2000/svg" viewBox="0 0 96 96" role="img" aria-labelledby="title desc">
  <title id="title">IntelliCollab AI logo</title>
  <desc id="desc">A modern enterprise collaboration logo with connected nodes and an AI spark.</desc>
  <defs>
    <linearGradient id="mark" x1="14" y1="10" x2="82" y2="88" gradientUnits="userSpaceOnUse">
      <stop offset="0" stop-color="#14b8a6"/>
      <stop offset=".46" stop-color="#06b6d4"/>
      <stop offset="1" stop-color="#d946ef"/>
    </linearGradient>
    <linearGradient id="glass" x1="25" y1="20" x2="70" y2="72" gradientUnits="userSpaceOnUse">
      <stop offset="0" stop-color="#ffffff" stop-opacity=".95"/>
      <stop offset="1" stop-color="#ffffff" stop-opacity=".42"/>
    </linearGradient>
    <filter id="shadow" x="-20%" y="-20%" width="140%" height="140%">
      <feDropShadow dx="0" dy="10" stdDeviation="10" flood-color="#0f172a" flood-opacity=".22"/>
    </filter>
  </defs>
  <rect width="96" height="96" rx="24" fill="#071216"/>
  <path d="M48 8c22.1 0 40 17.9 40 40S70.1 88 48 88 8 70.1 8 48 25.9 8 48 8Z" fill="url(#mark)" filter="url(#shadow)"/>
  <path d="M28 61.5V34.4c0-5.2 4.2-9.4 9.4-9.4h21.2c5.2 0 9.4 4.2 9.4 9.4v16.1c0 5.2-4.2 9.4-9.4 9.4H43.2L30.6 70.5c-1.1.9-2.6.1-2.6-1.3v-7.7Z" fill="url(#glass)" stroke="#fff" stroke-opacity=".58" stroke-width="2"/>
  <circle cx="39" cy="43" r="4.2" fill="#071216"/>
  <circle cx="49" cy="43" r="4.2" fill="#071216"/>
  <circle cx="59" cy="43" r="4.2" fill="#071216"/>
  <path d="M64.8 24.2l1.9 5.1 5.1 1.9-5.1 1.9-1.9 5.1-1.9-5.1-5.1-1.9 5.1-1.9 1.9-5.1Z" fill="#facc15"/>
  <path d="M24 25.5 34.5 16M72 71 61 80.5" stroke="#fff" stroke-opacity=".55" stroke-width="3" stroke-linecap="round"/>
</svg>
